<svg xmlns="http://www.w3.org/2000/svg" viewBox="0 0 900 675" role="img" aria-labelledby="title desc">
  <title id="title">Concrete work project visual</title>
  <desc id="desc">Stylized concrete slab and finishing tools at a job site.</desc>
  <defs>
    <linearGradient id="bg" x1="0" x2="1" y1="0" y2="1">
      <stop offset="0" stop-color="#eaf4ff"/>
      <stop offset="1" stop-color="#8fc6ff"/>
    </linearGradient>
    <linearGradient id="slab" x1="0" x2="1" y1="0" y2="1">
      <stop offset="0" stop-color="#e7edf4"/>
      <stop offset="1" stop-color="#9aa8b8"/>
    </linearGradient>
  </defs>
  <rect width="900" height="675" fill="url(#bg)"/>
  <path d="M0 392 C150 350 300 390 450 352 C610 312 742 360 900 320 V675 H0Z" fill="#172033"/>
  <path d="M110 355 L790 285 L850 520 L165 600Z" fill="url(#slab)" stroke="#083d77" stroke-width="18" stroke-linejoin="round"/>
  <path d="M190 400 L765 340 M225 485 L808 418" stroke="#ffffff" stroke-width="9" opacity=".65"/>
  <path d="M420 265 L710 545" stroke="#f5b942" stroke-width="26" stroke-linecap="round"/>
  <path d="M645 485 L790 625" stroke="#0b5fba" stroke-width="34" stroke-linecap="round"/>
  <rect x="335" y="208" width="166" height="62" rx="14" transform="rotate(18 418 239)" fill="#0b5fba"/>
  <rect x="322" y="222" width="188" height="28" rx="14" transform="rotate(18 416 236)" fill="#f8fbff"/>
  <g transform="translate(140 210)">
    <rect x="20" y="0" width="95" height="170" rx="18" fill="#f5b942"/>
    <path d="M0 172 H138" stroke="#083d77" stroke-width="20" stroke-linecap="round"/>
    <path d="M45 40 H90 M45 80 H90 M45 120 H90" stroke="#083d77" stroke-width="10" stroke-linecap="round"/>
  </g>
</svg>
