<svg xmlns="http://www.w3.org/2000/svg" viewBox="0 0 900 675" role="img" aria-labelledby="title desc">
  <title id="title">Home building project visual</title>
  <desc id="desc">Stylized new home construction scene with framing and blue sky.</desc>
  <defs>
    <linearGradient id="sky" x1="0" x2="1" y1="0" y2="1">
      <stop offset="0" stop-color="#dff0ff"/>
      <stop offset="1" stop-color="#8fc6ff"/>
    </linearGradient>
    <linearGradient id="ground" x1="0" x2="1">
      <stop offset="0" stop-color="#324155"/>
      <stop offset="1" stop-color="#172033"/>
    </linearGradient>
  </defs>
  <rect width="900" height="675" fill="url(#sky)"/>
  <circle cx="760" cy="120" r="72" fill="#f5b942" opacity=".9"/>
  <path d="M0 510 C180 460 295 520 430 490 C610 450 720 510 900 462 V675 H0Z" fill="url(#ground)"/>
  <g transform="translate(150 205)">
    <path d="M35 212 L300 35 L565 212 V420 H35Z" fill="#f8fbff" stroke="#083d77" stroke-width="18" stroke-linejoin="round"/>
    <path d="M0 225 L300 0 L600 225" fill="none" stroke="#0b5fba" stroke-width="36" stroke-linecap="round" stroke-linejoin="round"/>
    <rect x="240" y="275" width="120" height="145" fill="#0b5fba"/>
    <rect x="92" y="265" width="105" height="82" fill="#dff0ff" stroke="#083d77" stroke-width="12"/>
    <rect x="403" y="265" width="105" height="82" fill="#dff0ff" stroke="#083d77" stroke-width="12"/>
    <path d="M292 35 V210" stroke="#f5b942" stroke-width="16" stroke-linecap="round"/>
    <path d="M178 120 V420 M422 120 V420" stroke="#dde5ef" stroke-width="14"/>
  </g>
  <g transform="translate(620 410)">
    <rect x="0" y="50" width="205" height="30" rx="15" fill="#f5b942"/>
    <rect x="32" y="0" width="42" height="118" rx="12" fill="#0b5fba"/>
    <rect x="132" y="0" width="42" height="118" rx="12" fill="#0b5fba"/>
  </g>
</svg>
