<svg xmlns="http://www.w3.org/2000/svg" viewBox="0 0 900 675" role="img" aria-labelledby="title desc">
  <title id="title">Bathroom remodel after visual</title>
  <desc id="desc">Stylized finished bathroom after a remodel.</desc>
  <defs>
    <linearGradient id="wall" x1="0" x2="1" y1="0" y2="1">
      <stop offset="0" stop-color="#f8fbff"/>
      <stop offset="1" stop-color="#dff0ff"/>
    </linearGradient>
    <linearGradient id="tile" x1="0" x2="1">
      <stop offset="0" stop-color="#0b5fba"/>
      <stop offset="1" stop-color="#083d77"/>
    </linearGradient>
  </defs>
  <rect width="900" height="675" fill="url(#wall)"/>
  <path d="M0 455 H900 V675 H0Z" fill="#e7edf4"/>
  <path d="M0 455 H900" stroke="#d3dfec" stroke-width="18"/>
  <g opacity=".9">
    <path d="M80 100 H820 M80 190 H820 M80 280 H820 M80 370 H820" stroke="#ffffff" stroke-width="8"/>
    <path d="M165 60 V455 M335 60 V455 M505 60 V455 M675 60 V455" stroke="#ffffff" stroke-width="8"/>
  </g>
  <g transform="translate(105 235)">
    <rect x="0" y="162" width="320" height="82" rx="28" fill="#ffffff" stroke="#083d77" stroke-width="12"/>
    <rect x="70" y="115" width="175" height="75" rx="24" fill="#dff0ff" stroke="#0b5fba" stroke-width="10"/>
    <path d="M92 115 V72 C92 32 124 10 164 10 H218" fill="none" stroke="#083d77" stroke-width="16" stroke-linecap="round"/>
    <rect x="205" y="0" width="92" height="40" rx="18" fill="#f5b942"/>
  </g>
  <g transform="translate(560 145)">
    <rect x="0" y="0" width="200" height="305" rx="14" fill="url(#tile)" stroke="#083d77" stroke-width="12"/>
    <path d="M38 62 H162 M38 118 H162 M38 174 H162" stroke="#ffffff" stroke-width="10" opacity=".82"/>
    <circle cx="148" cy="224" r="12" fill="#f5b942"/>
  </g>
  <g transform="translate(420 470)">
    <rect x="0" y="0" width="245" height="72" rx="28" fill="#083d77"/>
    <rect x="30" y="-28" width="82" height="52" rx="18" fill="#ffffff" stroke="#0b5fba" stroke-width="10"/>
    <rect x="138" y="-28" width="82" height="52" rx="18" fill="#ffffff" stroke="#0b5fba" stroke-width="10"/>
  </g>
</svg>
